# xmcd
#
# Track frame offsets: 
#        150
#        12887
#        26242
#        40753
#        68544
#        83309
#        104029
#        113328
#        124275
#        133355
#        146426
#        157942
#
# Disc length: 2623 seconds
#
# Revision: 0
# Processed by: cddbd v1.5.2PL0 Copyright (c) Steve Scherf et al.
# Submitted via: ExactAudioCopy v1.0b1
#
DISCID=950a3d0c
DTITLE=Краси Йорданов - Черен дракон [Искахте го двоен] CD1 - Шеговит 
DTITLE=диск
DYEAR=2013
DGENRE=Bard music
TTITLE0=Черен дракон
TTITLE1=Не мога като Дони
TTITLE2=Тра-ла-ла-ла
TTITLE3=Среднощен телефонен разговор с Тангра за негова сметка (Няма п
TTITLE3=ари)
TTITLE4=Кметът (Кавър по Гинчо Павлов)
TTITLE5=Италианска полупреведена песен (Кавър по Гинчо Павлов)
TTITLE6=Студентски химн (Кавър по Комата)
TTITLE7=Жената спи (Кавър по Емо Брачеда и Нети)
TTITLE8=Монолог на настъпания котарак (Кавър по Каризма)
TTITLE9=Легенда за Веско Хляба (Кавър по Пиф)
TTITLE10=Мезето свърши (Кавър по Дони и Момчил)
TTITLE11=Сага за Иван Манафа
EXTD=
EXTT0=
EXTT1=
EXTT2=
EXTT3=
EXTT4=
EXTT5=
EXTT6=
EXTT7=
EXTT8=
EXTT9=
EXTT10=
EXTT11=
PLAYORDER=
